{
	"asset":{
		"generator":"Khronos glTF Blender I/O v4.3.47",
		"version":"2.0"
	},
	"extensionsUsed":[
		"EXT_texture_webp"
	],
	"extensionsRequired":[
		"EXT_texture_webp"
	],
	"scene":0,
	"scenes":[
		{
			"name":"Scene",
			"nodes":[
				0,
				1
			]
		}
	],
	"nodes":[
		{
			"mesh":0,
			"name":"model",
			"rotation":[
				0,
				0.7071068286895752,
				-0.7071068286895752,
				0
			]
		},
		{
			"name":"world",
			"translation":[
				1.3579858541488647,
				0,
				0
			]
		}
	],
	"materials":[
		{
			"doubleSided":true,
			"emissiveFactor":[
				1,
				1,
				1
			],
			"emissiveTexture":{
				"index":0
			},
			"name":"CustomMaterial",
			"pbrMetallicRoughness":{
				"baseColorFactor":[
					0,
					0,
					0,
					1
				],
				"metallicFactor":0
			}
		}
	],
	"meshes":[
		{
			"name":"model",
			"primitives":[
				{
					"attributes":{
						"POSITION":0,
						"NORMAL":1,
						"TEXCOORD_0":2
					},
					"indices":3,
					"material":0
				}
			]
		}
	],
	"textures":[
		{
			"extensions":{
				"EXT_texture_webp":{
					"source":0
				}
			},
			"sampler":0
		}
	],
	"images":[
		{
			"mimeType":"image/webp",
			"name":"shaded",
			"uri":"shaded.webp"
		}
	],
	"accessors":[
		{
			"bufferView":0,
			"componentType":5126,
			"count":11173,
			"max":[
				0.8243029117584229,
				0.951021671295166,
				0.37425100803375244
			],
			"min":[
				-0.823754608631134,
				-0.9535855054855347,
				-0.3769510090351105
			],
			"type":"VEC3"
		},
		{
			"bufferView":1,
			"componentType":5126,
			"count":11173,
			"type":"VEC3"
		},
		{
			"bufferView":2,
			"componentType":5126,
			"count":11173,
			"type":"VEC2"
		},
		{
			"bufferView":3,
			"componentType":5123,
			"count":44661,
			"type":"SCALAR"
		}
	],
	"bufferViews":[
		{
			"buffer":0,
			"byteLength":134076,
			"byteOffset":0,
			"target":34962
		},
		{
			"buffer":0,
			"byteLength":134076,
			"byteOffset":134076,
			"target":34962
		},
		{
			"buffer":0,
			"byteLength":89384,
			"byteOffset":268152,
			"target":34962
		},
		{
			"buffer":0,
			"byteLength":89322,
			"byteOffset":357536,
			"target":34963
		}
	],
	"samplers":[
		{
			"magFilter":9728,
			"minFilter":9984
		}
	],
	"buffers":[
		{
			"byteLength":446860,
			"uri":"ship.bin"
		}
	]
}
